<svg width="44" height="44" viewBox="0 0 44 44" fill="none" xmlns="http://www.w3.org/2000/svg">
<g clip-path="url(#clip0_2213_10297)">
<path d="M17.3951 13.2165C18.7784 13.2165 19.9049 12.0887 19.9049 10.7038C19.9049 9.3188 18.7784 8.19098 17.3951 8.19098C16.0118 8.19098 14.8853 9.3188 14.8853 10.7038C14.8853 12.0887 16.0118 13.2165 17.3951 13.2165ZM17.3951 9.38196C18.1251 9.38196 18.7153 9.97745 18.7153 10.7038C18.7153 11.4301 18.1206 12.0256 17.3951 12.0256C16.6697 12.0256 16.0749 11.4301 16.0749 10.7038C16.0749 9.97745 16.6697 9.38196 17.3951 9.38196Z" fill="#393737"/>
<path d="M25.5688 13.2165C26.9521 13.2165 28.0786 12.0887 28.0786 10.7038C28.0786 9.3188 26.9521 8.19098 25.5688 8.19098C24.1855 8.19098 23.059 9.3188 23.059 10.7038C23.059 12.0887 24.1855 13.2165 25.5688 13.2165ZM25.5688 9.38196C26.2988 9.38196 26.889 9.97745 26.889 10.7038C26.889 11.4301 26.2943 12.0256 25.5688 12.0256C24.8434 12.0256 24.2486 11.4301 24.2486 10.7038C24.2486 9.97745 24.8434 9.38196 25.5688 9.38196Z" fill="#393737"/>
<path d="M24.0549 19.8752C24.0549 18.4902 22.9284 17.3624 21.5451 17.3624C20.1618 17.3624 19.0353 18.4902 19.0353 19.8752C19.0353 21.2602 20.1618 22.388 21.5451 22.388C22.9284 22.388 24.0549 21.2602 24.0549 19.8752ZM20.2248 19.8752C20.2248 19.1444 20.8196 18.5534 21.5451 18.5534C22.2705 18.5534 22.8653 19.1489 22.8653 19.8752C22.8653 20.6015 22.2705 21.197 21.5451 21.197C20.8196 21.197 20.2248 20.6015 20.2248 19.8752Z" fill="#393737"/>
<path d="M16.0749 15.3639C15.0971 15.3639 14.3041 16.1579 14.3041 17.1368C14.3041 18.1158 15.0971 18.9098 16.0749 18.9098C17.0527 18.9098 17.8457 18.1158 17.8457 17.1368C17.8457 16.1579 17.0527 15.3639 16.0749 15.3639ZM16.0749 18.0707C15.5612 18.0707 15.1422 17.6511 15.1422 17.1368C15.1422 16.6225 15.5612 16.203 16.0749 16.203C16.5886 16.203 17.0076 16.6225 17.0076 17.1368C17.0076 17.6511 16.5886 18.0707 16.0749 18.0707Z" fill="#393737"/>
<path d="M25.1182 17.1368C25.1182 18.1158 25.9113 18.9098 26.889 18.9098C27.8668 18.9098 28.6599 18.1158 28.6599 17.1368C28.6599 16.1579 27.8668 15.3639 26.889 15.3639C25.9113 15.3639 25.1182 16.1579 25.1182 17.1368ZM27.8218 17.1368C27.8218 17.6511 27.4027 18.0707 26.889 18.0707C26.3754 18.0707 25.9563 17.6511 25.9563 17.1368C25.9563 16.6225 26.3754 16.203 26.889 16.203C27.4027 16.203 27.8218 16.6225 27.8218 17.1368Z" fill="#393737"/>
<path d="M28.4571 27.8962H23.6718C23.6809 27.8421 23.6899 27.788 23.6899 27.7293V26.2767C23.6899 26.1594 23.6673 26.0511 23.6223 25.9519C28.9798 24.8737 33.0171 20.1368 33.0171 14.4526C33.0171 8.76842 29.1871 4.28421 24.0413 3.04812C24.0413 2.70977 23.9963 1.05865 23.059 1V1.11278H19.9049V1C19.0308 1.05865 18.9316 2.49323 18.9271 2.96241C13.5966 4.06316 9.58639 8.78647 9.58639 14.4526C9.58639 20.1188 13.9256 25.2165 19.576 26.0511C19.5534 26.1233 19.5399 26.1955 19.5399 26.2722V27.7248C19.5399 27.7835 19.5444 27.8376 19.558 27.8917H14.5429C10.3794 27.8917 7 31.2707 7 35.4436C7 39.612 10.3749 42.9955 14.5429 42.9955H28.4571C32.6206 42.9955 36 39.6165 36 35.4436C36 31.2752 32.6251 27.8917 28.4571 27.8917V27.8962ZM19.9049 1.41053H23.059V2.85865C22.4868 2.77293 21.8965 2.72782 21.2972 2.72782C20.8241 2.72782 20.36 2.7594 19.9049 2.81353V1.41053ZM11.961 14.4526C11.961 9.29624 16.1515 5.10526 21.2972 5.10526C26.443 5.10526 30.6335 9.30075 30.6335 14.4526C30.6335 19.6045 26.443 23.8 21.2972 23.8C16.1515 23.8 11.961 19.6045 11.961 14.4526ZM28.4571 40.7444H14.5429C11.6276 40.7444 9.25295 38.3669 9.25295 35.4481C9.25295 32.5293 11.6276 30.1519 14.5429 30.1519H28.4571C31.3724 30.1519 33.747 32.5293 33.747 35.4481C33.747 38.3669 31.3724 40.7444 28.4571 40.7444Z" fill="#393737"/>
<path d="M15.1422 32.9309C16.5255 32.9309 17.652 34.0587 17.652 35.4436C17.652 36.8286 16.5255 37.9564 15.1422 37.9564C13.7589 37.9564 12.6324 36.8286 12.6324 35.4436C12.6324 34.0587 13.7589 32.9309 15.1422 32.9309ZM15.1422 31.1263C12.7585 31.1263 10.83 33.0617 10.83 35.4436C10.83 37.8256 12.763 39.7609 15.1422 39.7609C17.5213 39.7609 19.4543 37.8256 19.4543 35.4436C19.4543 33.0617 17.5213 31.1263 15.1422 31.1263Z" fill="#393737"/>
<path d="M27.8263 32.9309C29.2096 32.9309 30.3361 34.0587 30.3361 35.4436C30.3361 36.8286 29.2096 37.9564 27.8263 37.9564C26.443 37.9564 25.3165 36.8286 25.3165 35.4436C25.3165 34.0587 26.443 32.9309 27.8263 32.9309ZM27.8263 31.1263C25.4427 31.1263 23.5142 33.0617 23.5142 35.4436C23.5142 37.8256 25.4472 39.7609 27.8263 39.7609C30.2054 39.7609 32.1385 37.8256 32.1385 35.4436C32.1385 33.0617 30.2054 31.1263 27.8263 31.1263Z" fill="#393737"/>
</g>
<defs>
<clipPath id="clip0_2213_10297">
<rect width="29" height="42" fill="white" transform="translate(7 1)"/>
</clipPath>
</defs>
</svg>
