<svg width="48" height="44" viewBox="0 0 48 44" fill="none" xmlns="http://www.w3.org/2000/svg">
<g clip-path="url(#clip0_2213_10419)">
<path d="M23.8991 23.8613C21.1372 23.8613 18.8923 21.6265 18.8923 18.8768C18.8923 16.1272 21.1372 13.8924 23.8991 13.8924C26.6611 13.8924 28.9059 16.1272 28.9059 18.8768C28.9059 21.6265 26.6611 23.8613 23.8991 23.8613ZM23.8991 16.4097C22.5307 16.4097 21.4146 17.5209 21.4146 18.8831C21.4146 20.2454 22.5307 21.3565 23.8991 21.3565C25.2675 21.3565 26.3836 20.2454 26.3836 18.8831C26.3836 17.5209 25.2675 16.4097 23.8991 16.4097Z" fill="#393737"/>
<path d="M35.855 23.8613C33.093 23.8613 30.8481 21.6265 30.8481 18.8768C30.8481 16.1272 33.093 13.8924 35.855 13.8924C38.6169 13.8924 40.8618 16.1272 40.8618 18.8768C40.8618 21.6265 38.6169 23.8613 35.855 23.8613ZM35.855 16.4097C34.4866 16.4097 33.3705 17.5209 33.3705 18.8831C33.3705 20.2454 34.4866 21.3565 35.855 21.3565C37.2233 21.3565 38.3395 20.2454 38.3395 18.8831C38.3395 17.5209 37.2233 16.4097 35.855 16.4097Z" fill="#393737"/>
<path d="M10.9847 23.8613C8.22278 23.8613 5.97791 21.6265 5.97791 18.8768C5.97791 16.1272 8.22278 13.8924 10.9847 13.8924C13.7467 13.8924 15.9916 16.1272 15.9916 18.8768C15.9916 21.6265 13.7467 23.8613 10.9847 23.8613ZM10.9847 16.4097C9.61637 16.4097 8.50024 17.5209 8.50024 18.8831C8.50024 20.2454 9.61637 21.3565 10.9847 21.3565C12.3531 21.3565 13.4692 20.2454 13.4692 18.8831C13.4692 17.5209 12.3531 16.4097 10.9847 16.4097Z" fill="#393737"/>
<path d="M17.5365 34.5145C14.7745 34.5145 12.5297 32.2797 12.5297 29.53C12.5297 26.7804 14.7745 24.5456 17.5365 24.5456C20.2984 24.5456 22.5433 26.7804 22.5433 29.53C22.5433 32.2797 20.2984 34.5145 17.5365 34.5145ZM17.5365 27.0629C16.1681 27.0629 15.052 28.1741 15.052 29.5363C15.052 30.8986 16.1681 32.0097 17.5365 32.0097C18.9049 32.0097 20.021 30.8986 20.021 29.5363C20.021 28.1741 18.9049 27.0629 17.5365 27.0629Z" fill="#393737"/>
<path d="M29.9716 34.9916C27.2097 34.9916 24.9648 32.7568 24.9648 30.0072C24.9648 27.2575 27.2097 25.0227 29.9716 25.0227C32.7336 25.0227 34.9784 27.2575 34.9784 30.0072C34.9784 32.7568 32.7336 34.9916 29.9716 34.9916ZM29.9716 27.54C28.6032 27.54 27.4871 28.6512 27.4871 30.0134C27.4871 31.3757 28.6032 32.4868 29.9716 32.4868C31.34 32.4868 32.4561 31.3757 32.4561 30.0134C32.4561 28.6512 31.34 27.54 29.9716 27.54Z" fill="#393737"/>
<path d="M17.2969 13.8987C15.5312 13.8987 14.0935 12.4674 14.0935 10.7097C14.0935 8.95193 15.5312 7.52063 17.2969 7.52063C19.0625 7.52063 20.5002 8.95193 20.5002 10.7097C20.5002 12.4674 19.0625 13.8987 17.2969 13.8987ZM17.2969 8.77616C16.2249 8.77616 15.3547 9.64247 15.3547 10.7097C15.3547 11.7769 16.2249 12.6432 17.2969 12.6432C18.3689 12.6432 19.2391 11.7769 19.2391 10.7097C19.2391 9.64247 18.3689 8.77616 17.2969 8.77616Z" fill="#393737"/>
<path d="M29.9716 13.8987C28.206 13.8987 26.7682 12.4674 26.7682 10.7097C26.7682 8.95193 28.206 7.52063 29.9716 7.52063C31.7372 7.52063 33.175 8.95193 33.175 10.7097C33.175 12.4674 31.7372 13.8987 29.9716 13.8987ZM29.9716 8.77616C28.8996 8.77616 28.0294 9.64247 28.0294 10.7097C28.0294 11.7769 28.8996 12.6432 29.9716 12.6432C31.0436 12.6432 31.9138 11.7769 31.9138 10.7097C31.9138 9.64247 31.0436 8.77616 29.9716 8.77616Z" fill="#393737"/>
<path d="M36.5612 3.1388C36.5612 3.1388 44.0084 9.68639 44.803 19.762C45.5975 29.8376 36.2018 40.5598 24.3405 40.8486C24.1703 40.8486 24 40.8486 23.8361 40.8486C12.227 40.8486 3.443 31.1183 3.15924 20.4714C2.86917 9.67383 10.8208 3.12625 10.8208 3.12625H36.5612M37.753 -0.0125732H9.69208L8.81557 0.709356C8.44353 1.02952 -0.315275 8.38691 0.00632266 20.5655C0.353143 33.4849 11.0415 43.9937 23.8361 43.9937C24.0315 43.9937 24.227 43.9937 24.4162 43.9874C30.9617 43.8305 37.3432 40.8423 41.9212 35.7888C46.1902 31.0743 48.3847 25.1419 47.9433 19.5109C47.0604 8.29903 38.989 1.07974 38.6485 0.77841L37.753 -0.0062956V-0.0125732Z" fill="#393737"/>
</g>
<defs>
<clipPath id="clip0_2213_10419">
<rect width="48" height="44" fill="white"/>
</clipPath>
</defs>
</svg>
