<svg width="44" height="44" viewBox="0 0 44 44" fill="none" xmlns="http://www.w3.org/2000/svg">
<path d="M29.7541 15.4134C28.0315 15.4134 26.6336 13.9776 26.6336 12.219C26.6336 10.4555 28.0362 9.02448 29.7541 9.02448C31.4767 9.02448 32.8745 10.4603 32.8745 12.219C32.8792 13.9824 31.4767 15.4134 29.7541 15.4134ZM29.7541 10.6338C28.9022 10.6338 28.2056 11.3469 28.2056 12.219C28.2056 13.0911 28.9022 13.8042 29.7541 13.8042C30.606 13.8042 31.3025 13.0911 31.3025 12.219C31.3025 11.3469 30.6107 10.6338 29.7541 10.6338Z" fill="#393737"/>
<path d="M14.2459 15.4134C12.5233 15.4134 11.1255 13.9776 11.1255 12.219C11.1255 10.4555 12.528 9.02448 14.2459 9.02448C15.9686 9.02448 17.3664 10.4603 17.3664 12.219C17.3664 13.9824 15.9686 15.4134 14.2459 15.4134ZM14.2459 10.6338C13.3941 10.6338 12.6975 11.3469 12.6975 12.219C12.6975 13.0911 13.3941 13.8042 14.2459 13.8042C15.0978 13.8042 15.7944 13.0911 15.7944 12.219C15.7944 11.3469 15.0978 10.6338 14.2459 10.6338Z" fill="#393737"/>
<path d="M18.3312 22.2458C16.6086 22.2458 15.2108 20.8099 15.2108 19.0513C15.2108 17.2878 16.6133 15.8568 18.3312 15.8568C20.0538 15.8568 21.4517 17.2926 21.4517 19.0513C21.4564 20.8148 20.0538 22.2458 18.3312 22.2458ZM18.3312 17.4661C17.4793 17.4661 16.7828 18.1792 16.7828 19.0513C16.7828 19.9234 17.4793 20.6365 18.3312 20.6365C19.1831 20.6365 19.8797 19.9234 19.8797 19.0513C19.8797 18.1744 19.1878 17.4661 18.3312 17.4661Z" fill="#393737"/>
<path d="M26.0877 22.5541C24.3651 22.5541 22.9672 21.1183 22.9672 19.3596C22.9672 17.5962 24.3698 16.1652 26.0877 16.1652C27.8103 16.1652 29.2081 17.601 29.2081 19.3596C29.2081 21.1183 27.8103 22.5541 26.0877 22.5541ZM26.0877 17.7744C25.2358 17.7744 24.5392 18.4875 24.5392 19.3596C24.5392 20.2317 25.2358 20.9448 26.0877 20.9448C26.9396 20.9448 27.6361 20.2317 27.6361 19.3596C27.6361 18.4827 26.9443 17.7744 26.0877 17.7744Z" fill="#393737"/>
<path d="M29.8859 27.0543H28.5633V25.2234H28.5539C30.1259 24.3898 31.5661 23.2576 32.7898 21.8699C35.3267 18.9886 36.6304 15.3653 36.3668 11.9251C35.8397 5.07359 31.0484 0.664915 30.8413 0.481822L30.3095 0H29.6082H14.3118H13.6388L13.121 0.438458C12.8998 0.626369 7.69437 5.12177 7.88734 12.5659C8.03324 18.1984 11.309 23.0793 15.9356 25.4161V27.0543H14.1141C9.63818 27.0543 6 30.7788 6 35.3609V35.6934C6 40.2755 9.63818 44 14.1141 44H29.8859C34.3618 44 38 40.2755 38 35.6934V35.3609C38 30.7836 34.3618 27.0543 29.8859 27.0543ZM9.76055 12.5177C9.58641 5.9216 14.3118 1.91765 14.3118 1.91765H29.6082C29.6082 1.91765 34.0324 5.92159 34.503 12.0745C34.9737 18.2322 29.3917 24.7849 22.3459 24.9584C22.2471 24.9632 22.1436 24.9632 22.0447 24.9632C15.1496 24.9632 9.92999 19.0175 9.76055 12.5177ZM36.1174 35.6934C36.1174 39.2155 33.3264 42.0727 29.8859 42.0727H14.1141C10.6736 42.0727 7.88263 39.2155 7.88263 35.6934V35.3609C7.88263 31.8388 10.6736 28.9816 14.1141 28.9816H29.8859C33.3264 28.9816 36.1174 31.8388 36.1174 35.3609V35.6934Z" fill="#393737"/>
<path d="M22.0353 10.4748C23.0802 10.4748 23.9227 11.3421 23.9227 12.4069C23.9227 13.4766 23.0755 14.339 22.0353 14.339C20.9905 14.339 20.148 13.4718 20.148 12.4069C20.148 11.3421 20.9905 10.4748 22.0353 10.4748ZM22.0353 9.02936C20.2139 9.02936 18.736 10.5471 18.736 12.4069C18.736 14.2668 20.2186 15.7845 22.0353 15.7845C23.8568 15.7845 25.3346 14.2668 25.3346 12.4069C25.3346 10.5471 23.8568 9.02936 22.0353 9.02936Z" fill="#393737"/>
<path d="M29.4811 32.8073C30.9496 32.8073 32.1356 34.0264 32.1356 35.5248C32.1356 37.0281 30.9449 38.2423 29.4811 38.2423C28.0127 38.2423 26.8266 37.0233 26.8266 35.5248C26.8266 34.0264 28.0174 32.8073 29.4811 32.8073ZM29.4811 30.7789C26.9208 30.7789 24.8405 32.9085 24.8405 35.5296C24.8405 38.1507 26.9208 40.2804 29.4811 40.2804C32.0415 40.2804 34.1218 38.1507 34.1218 35.5296C34.1218 32.9085 32.0415 30.7789 29.4811 30.7789Z" fill="#393737"/>
<path d="M14.7495 32.8073C16.218 32.8073 17.404 34.0264 17.404 35.5248C17.404 37.0281 16.2133 38.2423 14.7495 38.2423C13.2811 38.2423 12.095 37.0233 12.095 35.5248C12.095 34.0264 13.2858 32.8073 14.7495 32.8073ZM14.7495 30.7789C12.1891 30.7789 10.1088 32.9085 10.1088 35.5296C10.1088 38.1507 12.1891 40.2804 14.7495 40.2804C17.3099 40.2804 19.3902 38.1507 19.3902 35.5296C19.3902 32.9085 17.3099 30.7789 14.7495 30.7789Z" fill="#393737"/>
<path d="M17.9076 5.19887C18.5619 5.19887 19.0937 5.74333 19.0937 6.41307C19.0937 7.0828 18.5619 7.62726 17.9076 7.62726C17.2534 7.62726 16.7216 7.0828 16.7216 6.41307C16.7216 5.74333 17.2534 5.19887 17.9076 5.19887ZM17.9076 4.23523C16.7357 4.23523 15.7803 5.21333 15.7803 6.41307C15.7803 7.6128 16.7357 8.5909 17.9076 8.5909C19.0796 8.5909 20.035 7.6128 20.035 6.41307C20.035 5.21333 19.0796 4.23523 17.9076 4.23523Z" fill="#393737"/>
<path d="M26.163 5.19887C26.8172 5.19887 27.349 5.74333 27.349 6.41307C27.349 7.0828 26.8172 7.62726 26.163 7.62726C25.5087 7.62726 24.9769 7.0828 24.9769 6.41307C24.9769 5.74333 25.5087 5.19887 26.163 5.19887ZM26.163 4.23523C24.991 4.23523 24.0356 5.21333 24.0356 6.41307C24.0356 7.6128 24.991 8.5909 26.163 8.5909C27.3349 8.5909 28.2903 7.6128 28.2903 6.41307C28.2903 5.21333 27.3349 4.23523 26.163 4.23523Z" fill="#393737"/>
</svg>
