<svg width="44" height="44" viewBox="0 0 44 44" fill="none" xmlns="http://www.w3.org/2000/svg">
<g clip-path="url(#clip0_2213_10255)">
<path d="M44 21.324C44 14.8153 40.9704 8.98027 36.2082 5.06178L36.2719 4.97164C36.5166 4.62059 36.4187 4.1462 36.0565 3.909L33.1689 2.0304C32.8067 1.79321 32.3172 1.88809 32.0725 2.23914L32.004 2.33876C29.0038 0.849164 25.6022 0 22 0C18.3978 0 14.8249 0.89186 11.7611 2.45736L11.7072 2.37197C11.487 2.00668 11.0073 1.8786 10.6305 2.09208L7.62047 3.77617C7.2436 3.98965 7.11146 4.45456 7.3317 4.81984L7.58131 5.2373C2.94149 9.15105 0 14.9102 0 21.324C0 31.865 7.9337 40.6413 18.3146 42.3444V43.2362C18.3146 43.6584 18.667 44 19.1026 44H24.6429C25.0785 44 25.4309 43.6584 25.4309 43.2362V42.3871C35.9341 40.7836 43.9951 31.9504 43.9951 21.324H44ZM22 39.8016C11.4723 39.8016 2.9366 31.5282 2.9366 21.324C2.9366 11.1198 11.4723 2.84636 22 2.84636C32.5277 2.84636 41.0634 11.1198 41.0634 21.324C41.0634 31.5282 32.5277 39.8016 22 39.8016Z" fill="#393737"/>
<path d="M11.531 28.3213C7.67919 28.3213 4.54193 25.2804 4.54193 21.5469C4.54193 17.8134 7.67919 14.7726 11.531 14.7726C15.3829 14.7726 18.5201 17.8134 18.5201 21.5469C18.5201 25.2804 15.3829 28.3213 11.531 28.3213ZM11.531 15.7214C8.21757 15.7214 5.5208 18.3353 5.5208 21.5469C5.5208 24.7586 8.21757 27.3725 11.531 27.3725C14.8445 27.3725 17.5413 24.7586 17.5413 21.5469C17.5413 18.3353 14.8445 15.7214 11.531 15.7214Z" fill="#393737"/>
<path d="M11.531 19.3932C12.7546 19.3932 13.7531 20.3609 13.7531 21.5469C13.7531 22.7329 12.7546 23.7007 11.531 23.7007C10.3074 23.7007 9.309 22.7329 9.309 21.5469C9.309 20.3609 10.3074 19.3932 11.531 19.3932ZM11.531 18.4444C9.76418 18.4444 8.33014 19.8344 8.33014 21.5469C8.33014 23.2595 9.76418 24.6495 11.531 24.6495C13.2979 24.6495 14.7319 23.2595 14.7319 21.5469C14.7319 19.8344 13.2979 18.4444 11.531 18.4444Z" fill="#393737"/>
<path d="M32.6843 28.3213C28.8325 28.3213 25.6952 25.2804 25.6952 21.5469C25.6952 17.8134 28.8325 14.7726 32.6843 14.7726C36.5361 14.7726 39.6734 17.8134 39.6734 21.5469C39.6734 25.2804 36.5361 28.3213 32.6843 28.3213ZM32.6843 15.7214C29.3708 15.7214 26.6741 18.3353 26.6741 21.5469C26.6741 24.7586 29.3708 27.3725 32.6843 27.3725C35.9977 27.3725 38.6945 24.7586 38.6945 21.5469C38.6945 18.3353 35.9977 15.7214 32.6843 15.7214Z" fill="#393737"/>
<path d="M32.6843 19.3932C33.9079 19.3932 34.9063 20.3609 34.9063 21.5469C34.9063 22.7329 33.9079 23.7007 32.6843 23.7007C31.4607 23.7007 30.4623 22.7329 30.4623 21.5469C30.4623 20.3609 31.4607 19.3932 32.6843 19.3932ZM32.6843 18.4444C30.9174 18.4444 29.4834 19.8344 29.4834 21.5469C29.4834 23.2595 30.9174 24.6495 32.6843 24.6495C34.4511 24.6495 35.8852 23.2595 35.8852 21.5469C35.8852 19.8344 34.4511 18.4444 32.6843 18.4444Z" fill="#393737"/>
<path d="M22 17.9131C18.1922 17.9131 15.0941 14.9102 15.0941 11.2194C15.0941 7.52862 18.1922 4.53046 22 4.53046C25.8078 4.53046 28.901 7.53337 28.901 11.2194C28.901 14.9054 25.8029 17.9131 22 17.9131ZM22 5.00485C18.4614 5.00485 15.5835 7.79428 15.5835 11.2194C15.5835 14.6445 18.4614 17.4387 22 17.4387C25.5386 17.4387 28.4116 14.6493 28.4116 11.2194C28.4116 7.78954 25.5337 5.00485 22 5.00485Z" fill="#393737"/>
<path d="M25.6952 15.3561C25.6316 15.3561 25.568 15.3324 25.519 15.2802L18.0943 7.71839C18.0013 7.62351 18.0062 7.47171 18.1041 7.38157C18.202 7.29144 18.3586 7.29618 18.4516 7.39106L25.8763 14.9529C25.9693 15.0478 25.9644 15.1996 25.8665 15.2897C25.8176 15.3324 25.7588 15.3561 25.7001 15.3561H25.6952Z" fill="#393737"/>
<path d="M18.0992 15.1616C18.0356 15.1616 17.972 15.1379 17.9231 15.0857C17.8301 14.9908 17.835 14.839 17.9328 14.7489L25.7344 7.55235C25.8323 7.46221 25.9889 7.46696 26.0819 7.56184C26.1749 7.65672 26.17 7.80852 26.0721 7.89866L18.2706 15.0952C18.2216 15.1379 18.1629 15.1616 18.1041 15.1616H18.0992Z" fill="#393737"/>
<path d="M22 8.18805C22.373 8.18805 22.6754 7.89495 22.6754 7.53339C22.6754 7.17183 22.373 6.87872 22 6.87872C21.627 6.87872 21.3246 7.17183 21.3246 7.53339C21.3246 7.89495 21.627 8.18805 22 8.18805Z" fill="#393737"/>
<path d="M25.8665 11.9974C26.2395 11.9974 26.5419 11.7043 26.5419 11.3428C26.5419 10.9812 26.2395 10.6881 25.8665 10.6881C25.4935 10.6881 25.1911 10.9812 25.1911 11.3428C25.1911 11.7043 25.4935 11.9974 25.8665 11.9974Z" fill="#393737"/>
<path d="M21.9854 15.7736C22.3584 15.7736 22.6608 15.4805 22.6608 15.1189C22.6608 14.7573 22.3584 14.4642 21.9854 14.4642C21.6123 14.4642 21.3099 14.7573 21.3099 15.1189C21.3099 15.4805 21.6123 15.7736 21.9854 15.7736Z" fill="#393737"/>
<path d="M18.0552 11.9974C18.4282 11.9974 18.7306 11.7043 18.7306 11.3428C18.7306 10.9812 18.4282 10.6881 18.0552 10.6881C17.6822 10.6881 17.3798 10.9812 17.3798 11.3428C17.3798 11.7043 17.6822 11.9974 18.0552 11.9974Z" fill="#393737"/>
<path d="M22 38.0321C18.1922 38.0321 15.0941 35.0292 15.0941 31.3384C15.0941 27.6476 18.1922 24.6495 22 24.6495C25.8078 24.6495 28.901 27.6524 28.901 31.3384C28.901 35.0245 25.8029 38.0321 22 38.0321ZM22 25.1239C18.4614 25.1239 15.5835 27.9133 15.5835 31.3384C15.5835 34.7635 18.4614 37.5577 22 37.5577C25.5386 37.5577 28.4116 34.7683 28.4116 31.3384C28.4116 27.9086 25.5337 25.1239 22 25.1239Z" fill="#393737"/>
<path d="M25.6952 35.4751C25.6316 35.4751 25.568 35.4514 25.519 35.3992L18.0943 27.8374C18.0013 27.7425 18.0062 27.5907 18.1041 27.5006C18.202 27.4105 18.3586 27.4152 18.4516 27.5101L25.8763 35.0719C25.9693 35.1668 25.9644 35.3186 25.8665 35.4087C25.8176 35.4514 25.7588 35.4751 25.7001 35.4751H25.6952Z" fill="#393737"/>
<path d="M18.0992 35.2759C18.0356 35.2759 17.972 35.2522 17.9231 35.2C17.8301 35.1051 17.835 34.9533 17.9328 34.8632L25.7344 27.6666C25.8323 27.5765 25.9889 27.5812 26.0819 27.6761C26.1749 27.771 26.17 27.9228 26.0721 28.0129L18.2706 35.2095C18.2216 35.2522 18.1629 35.2759 18.1041 35.2759H18.0992Z" fill="#393737"/>
<path d="M22 28.3071C22.373 28.3071 22.6754 28.014 22.6754 27.6524C22.6754 27.2908 22.373 26.9977 22 26.9977C21.627 26.9977 21.3246 27.2908 21.3246 27.6524C21.3246 28.014 21.627 28.3071 22 28.3071Z" fill="#393737"/>
<path d="M25.8665 32.1117C26.2395 32.1117 26.5419 31.8186 26.5419 31.457C26.5419 31.0955 26.2395 30.8024 25.8665 30.8024C25.4935 30.8024 25.1911 31.0955 25.1911 31.457C25.1911 31.8186 25.4935 32.1117 25.8665 32.1117Z" fill="#393737"/>
<path d="M21.9854 35.8926C22.3584 35.8926 22.6608 35.5995 22.6608 35.2379C22.6608 34.8764 22.3584 34.5833 21.9854 34.5833C21.6123 34.5833 21.3099 34.8764 21.3099 35.2379C21.3099 35.5995 21.6123 35.8926 21.9854 35.8926Z" fill="#393737"/>
<path d="M18.0552 32.1117C18.4282 32.1117 18.7306 31.8186 18.7306 31.457C18.7306 31.0955 18.4282 30.8024 18.0552 30.8024C17.6822 30.8024 17.3798 31.0955 17.3798 31.457C17.3798 31.8186 17.6822 32.1117 18.0552 32.1117Z" fill="#393737"/>
</g>
<defs>
<clipPath id="clip0_2213_10255">
<rect width="44" height="44" fill="white"/>
</clipPath>
</defs>
</svg>
