<svg width="44" height="44" viewBox="0 0 44 44" fill="none" xmlns="http://www.w3.org/2000/svg">
<g clip-path="url(#clip0_2213_10331)">
<path d="M15.6667 19.5153C13.422 19.5153 11.5933 17.7122 11.5933 15.4989C11.5933 13.2856 13.422 11.4825 15.6667 11.4825C17.9113 11.4825 19.7401 13.2856 19.7401 15.4989C19.7401 17.7122 17.9113 19.5153 15.6667 19.5153ZM15.6667 13.3882C14.4862 13.3882 13.5199 14.335 13.5199 15.4989C13.5199 16.6628 14.4801 17.6157 15.6667 17.6157C16.8532 17.6157 17.8073 16.6689 17.8073 15.4989C17.8073 14.3289 16.8471 13.3882 15.6667 13.3882Z" fill="#393737"/>
<path d="M28.9266 19.5153C26.682 19.5153 24.8532 17.7122 24.8532 15.4989C24.8532 13.2856 26.682 11.4825 28.9266 11.4825C31.1713 11.4825 33 13.2856 33 15.4989C33 17.7122 31.1713 19.5153 28.9266 19.5153ZM28.9266 13.3882C27.7462 13.3882 26.7798 14.335 26.7798 15.4989C26.7798 16.6628 27.7401 17.6157 28.9266 17.6157C30.1131 17.6157 31.0673 16.6689 31.0673 15.4989C31.0673 14.3289 30.107 13.3882 28.9266 13.3882Z" fill="#393737"/>
<path d="M22.3945 34.1579C20.1499 34.1579 18.3211 32.3547 18.3211 30.1414C18.3211 27.9282 20.1499 26.125 22.3945 26.125C24.6391 26.125 26.4679 27.9282 26.4679 30.1414C26.4679 32.3547 24.6391 34.1579 22.3945 34.1579ZM22.3945 28.0307C21.2141 28.0307 20.2477 28.9775 20.2477 30.1414C20.2477 31.3054 21.208 32.2582 22.3945 32.2582C23.581 32.2582 24.5352 31.3114 24.5352 30.1414C24.5352 28.9715 23.5749 28.0307 22.3945 28.0307Z" fill="#393737"/>
<path d="M13.526 28.6097C11.9419 28.6097 10.6514 27.3372 10.6514 25.7752C10.6514 24.2133 11.9419 22.9408 13.526 22.9408C15.1101 22.9408 16.4006 24.2133 16.4006 25.7752C16.4006 27.3372 15.1101 28.6097 13.526 28.6097ZM13.526 24.2856C12.6942 24.2856 12.0153 24.9551 12.0153 25.7752C12.0153 26.5954 12.6942 27.2648 13.526 27.2648C14.3578 27.2648 15.0367 26.5954 15.0367 25.7752C15.0367 24.9551 14.3578 24.2856 13.526 24.2856Z" fill="#393737"/>
<path d="M31.0673 28.6097C29.4832 28.6097 28.1927 27.3372 28.1927 25.7752C28.1927 24.2133 29.4832 22.9408 31.0673 22.9408C32.6514 22.9408 33.9419 24.2133 33.9419 25.7752C33.9419 27.3372 32.6514 28.6097 31.0673 28.6097ZM31.0673 24.2856C30.2355 24.2856 29.5566 24.9551 29.5566 25.7752C29.5566 26.5954 30.2355 27.2648 31.0673 27.2648C31.8991 27.2648 32.578 26.5954 32.578 25.7752C32.578 24.9551 31.8991 24.2856 31.0673 24.2856Z" fill="#393737"/>
<path d="M41 21.4874C41 12.6524 34.792 5.24671 26.4434 3.27467C26.4434 2.73191 26.37 0.0964912 24.8532 0V0.180921H19.7401V0C18.3211 0.0904605 18.1621 2.38816 18.1498 3.13596C9.50153 4.8909 3 12.4413 3 21.4874C3 30.5334 10.0336 38.6809 19.2018 40.0197C19.1713 40.1343 19.1468 40.2489 19.1468 40.3755V42.6974C19.1468 43.4211 19.7401 44.006 20.474 44.006H24.5474C25.2813 44.006 25.8746 43.4211 25.8746 42.6974V40.3755C25.8746 40.1886 25.8318 40.0137 25.7645 39.8569C34.4557 38.1382 41.0061 30.5696 41.0061 21.4934L41 21.4874ZM19.7401 0.651316H24.8532V2.96107C23.9235 2.82237 22.9694 2.75 21.9969 2.75C21.2324 2.75 20.4801 2.79825 19.7401 2.88871V0.651316ZM21.9969 36.4194C13.6483 36.4194 6.85321 29.7193 6.85321 21.4874C6.85321 13.2555 13.6483 6.54934 21.9969 6.54934C30.3456 6.54934 37.1407 13.2495 37.1407 21.4814C37.1407 29.7133 30.3456 36.4134 21.9969 36.4134V36.4194Z" fill="#393737"/>
</g>
<defs>
<clipPath id="clip0_2213_10331">
<rect width="38" height="44" fill="white" transform="translate(3)"/>
</clipPath>
</defs>
</svg>
