<svg width="48" height="44" viewBox="0 0 48 44" fill="none" xmlns="http://www.w3.org/2000/svg">
<g clip-path="url(#clip0_2213_10454)">
<path d="M36.2318 3.1388C36.2318 3.1388 43.6119 9.68639 44.3993 19.762C45.1867 29.8376 35.8756 40.5598 24.1212 40.8486C23.9525 40.8486 23.7838 40.8486 23.6213 40.8486C12.1169 40.8486 3.41196 31.1183 3.13076 20.4714C2.8433 9.67383 10.7233 3.12625 10.7233 3.12625H36.2318M37.4129 -0.0125732H9.60474L8.73613 0.709356C8.36744 1.02952 -0.312455 8.38691 0.0062448 20.5655C0.349941 33.4849 10.942 43.9937 23.6213 43.9937C23.815 43.9937 24.0087 43.9937 24.1962 43.9874C30.6827 43.8305 37.0067 40.8423 41.5435 35.7888C45.7741 31.0743 47.9488 25.1419 47.5113 19.5109C46.6365 8.29903 38.6377 1.07974 38.3003 0.77841L37.4129 -0.0062956V-0.0125732Z" fill="#393737"/>
<path d="M13.0855 18.337C15.0977 18.337 16.7287 19.9755 16.7287 21.9969C16.7287 24.0183 15.0977 25.6567 13.0855 25.6567C11.0733 25.6567 9.4423 24.0183 9.4423 21.9969C9.4423 19.9755 11.0733 18.337 13.0855 18.337ZM13.0855 15.8259C9.69851 15.8259 6.94269 18.5944 6.94269 21.9969C6.94269 25.3993 9.69851 28.1678 13.0855 28.1678C16.4724 28.1678 19.2283 25.3993 19.2283 21.9969C19.2283 18.5944 16.4724 15.8259 13.0855 15.8259Z" fill="#393737"/>
<path d="M34.5071 18.337C36.5193 18.337 38.1503 19.9755 38.1503 21.9969C38.1503 24.0183 36.5193 25.6567 34.5071 25.6567C32.4949 25.6567 30.8639 24.0183 30.8639 21.9969C30.8639 19.9755 32.4949 18.337 34.5071 18.337ZM34.5071 15.8259C31.1201 15.8259 28.3643 18.5944 28.3643 21.9969C28.3643 25.3993 31.1201 28.1678 34.5071 28.1678C37.8941 28.1678 40.6499 25.3993 40.6499 21.9969C40.6499 18.5944 37.8941 15.8259 34.5071 15.8259Z" fill="#393737"/>
<path d="M16.4287 9.97515C15.2664 9.97515 14.3228 9.02723 14.3228 7.85958C14.3228 6.69194 15.2664 5.74402 16.4287 5.74402C17.591 5.74402 18.5346 6.69194 18.5346 7.85958C18.5346 9.02723 17.591 9.97515 16.4287 9.97515ZM16.4287 6.32156C15.5851 6.32156 14.9039 7.0121 14.9039 7.85331C14.9039 8.69451 15.5913 9.38505 16.4287 9.38505C17.266 9.38505 17.9534 8.69451 17.9534 7.85331C17.9534 7.0121 17.266 6.32156 16.4287 6.32156Z" fill="#393737"/>
<path d="M23.7838 9.97515C22.6215 9.97515 21.6779 9.02723 21.6779 7.85958C21.6779 6.69194 22.6215 5.74402 23.7838 5.74402C24.9461 5.74402 25.8897 6.69194 25.8897 7.85958C25.8897 9.02723 24.9461 9.97515 23.7838 9.97515ZM23.7838 6.32156C22.9402 6.32156 22.259 7.0121 22.259 7.85331C22.259 8.69451 22.9464 9.38505 23.7838 9.38505C24.6211 9.38505 25.3085 8.69451 25.3085 7.85331C25.3085 7.0121 24.6211 6.32156 23.7838 6.32156Z" fill="#393737"/>
<path d="M23.7838 17.6528C22.6215 17.6528 21.6779 16.7048 21.6779 15.5372C21.6779 14.3696 22.6215 13.4216 23.7838 13.4216C24.9461 13.4216 25.8897 14.3696 25.8897 15.5372C25.8897 16.7048 24.9461 17.6528 23.7838 17.6528ZM23.7838 13.9992C22.9402 13.9992 22.259 14.6897 22.259 15.5309C22.259 16.3721 22.9464 17.0627 23.7838 17.0627C24.6211 17.0627 25.3085 16.3721 25.3085 15.5309C25.3085 14.6897 24.6211 13.9992 23.7838 13.9992Z" fill="#393737"/>
<path d="M32.8574 35.839C31.6951 35.839 30.7515 34.8911 30.7515 33.7235C30.7515 32.5558 31.6951 31.6079 32.8574 31.6079C34.0197 31.6079 34.9633 32.5558 34.9633 33.7235C34.9633 34.8911 34.0197 35.839 32.8574 35.839ZM32.8574 32.1855C32.0138 32.1855 31.3326 32.876 31.3326 33.7172C31.3326 34.5584 32.02 35.2489 32.8574 35.2489C33.6948 35.2489 34.3821 34.5584 34.3821 33.7172C34.3821 32.876 33.6948 32.1855 32.8574 32.1855Z" fill="#393737"/>
<path d="M14.8977 35.839C13.7354 35.839 12.7917 34.8911 12.7917 33.7235C12.7917 32.5558 13.7354 31.6079 14.8977 31.6079C16.06 31.6079 17.0036 32.5558 17.0036 33.7235C17.0036 34.8911 16.06 35.839 14.8977 35.839ZM14.8977 32.1855C14.0541 32.1855 13.3729 32.876 13.3729 33.7172C13.3729 34.5584 14.0603 35.2489 14.8977 35.2489C15.735 35.2489 16.4224 34.5584 16.4224 33.7172C16.4224 32.876 15.735 32.1855 14.8977 32.1855Z" fill="#393737"/>
<path d="M31.3326 9.97515C30.1703 9.97515 29.2267 9.02723 29.2267 7.85958C29.2267 6.69194 30.1703 5.74402 31.3326 5.74402C32.4949 5.74402 33.4385 6.69194 33.4385 7.85958C33.4385 9.02723 32.4949 9.97515 31.3326 9.97515ZM31.3326 6.32156C30.489 6.32156 29.8078 7.0121 29.8078 7.85331C29.8078 8.69451 30.4952 9.38505 31.3326 9.38505C32.17 9.38505 32.8574 8.69451 32.8574 7.85331C32.8574 7.0121 32.17 6.32156 31.3326 6.32156Z" fill="#393737"/>
<path d="M23.8775 31.4698C25.1148 31.4698 26.1147 32.4742 26.1147 33.7172C26.1147 34.9602 25.1148 35.9646 23.8775 35.9646C22.6402 35.9646 21.6404 34.9602 21.6404 33.7172C21.6404 32.4742 22.6402 31.4698 23.8775 31.4698ZM23.8775 30.2143C21.9528 30.2143 20.3906 31.79 20.3906 33.7172C20.3906 35.6445 21.9591 37.2201 23.8775 37.2201C25.796 37.2201 27.3645 35.6445 27.3645 33.7172C27.3645 31.79 25.796 30.2143 23.8775 30.2143Z" fill="#393737"/>
</g>
<defs>
<clipPath id="clip0_2213_10454">
<rect width="47.5676" height="44" fill="white"/>
</clipPath>
</defs>
</svg>
