<svg width="155" height="184" viewBox="0 0 155 184" fill="none" xmlns="http://www.w3.org/2000/svg">
<g id="logo">
<path id="Vector" d="M27.1323 44.9608H1.58541C1.31914 44.9611 1.05822 45.0369 0.831784 45.1795C0.605348 45.3221 0.422316 45.526 0.303127 45.7685C0.183939 46.0109 0.133286 46.2823 0.156832 46.5523C0.180378 46.8224 0.277194 47.0804 0.436464 47.2977L41.6371 103.362C41.8223 103.615 41.9223 103.922 41.9223 104.238C41.9223 104.553 41.8223 104.861 41.6371 105.114L0.431168 161.117C0.271585 161.334 0.174383 161.592 0.150421 161.862C0.126459 162.132 0.176681 162.403 0.29548 162.645C0.414279 162.888 0.59697 163.092 0.823132 163.235C1.04929 163.378 1.31001 163.454 1.57615 163.454L27.078 163.501C27.884 163.502 28.6792 163.312 29.4001 162.945C30.121 162.578 30.7477 162.044 31.2304 161.387L71.5402 106.455C72.0077 105.817 72.2603 105.042 72.2603 104.246C72.2603 103.45 72.0077 102.675 71.5402 102.037L31.278 47.0793C30.7965 46.4222 30.171 45.8885 29.4513 45.5207C28.7316 45.1529 27.9376 44.9612 27.1323 44.9608Z" fill="#1B355E"/>
<g id="Clip path group">
<mask id="mask0_2333_207" style="mask-type:luminance" maskUnits="userSpaceOnUse" x="79" y="0" width="76" height="184">
<g id="clip-path">
<path id="Vector_2" d="M87.293 106.079C76.7433 121.393 77.421 141.507 88.9794 156.151L106.452 177.899C107.821 179.586 109.504 180.981 111.403 182.006C113.302 183.03 115.381 183.664 117.521 183.871C119.661 184.077 121.82 183.853 123.874 183.21C125.929 182.567 127.839 181.518 129.496 180.124C131.152 178.729 132.523 177.016 133.529 175.083C134.536 173.149 135.158 171.032 135.361 168.854C135.564 166.675 135.343 164.477 134.712 162.385C134.081 160.293 133.051 158.349 131.681 156.662L88.5823 104.219H88.5743L87.293 106.079ZM125.264 7.10805L89.2679 52.7774C77.936 67.1883 77.1404 87.0871 87.2824 102.294L88.5677 104.219H88.5756L150.346 27.8221C155.254 21.7252 155.348 13.0352 150.062 6.57301C148.384 4.5182 146.204 2.94906 143.742 2.02319C141.857 1.31747 139.865 0.952599 137.856 0.945029C135.436 0.939801 133.046 1.49096 130.865 2.5574C128.683 3.62383 126.766 5.17801 125.257 7.104" fill="white"/>
</g>
</mask>
<g mask="url(#mask0_2333_207)">
<g id="Group">
<path id="Vector_3" d="M155.355 0.949081H76.7434V184.015H155.355V0.949081Z" fill="url(#paint0_linear_2333_207)"/>
</g>
</g>
</g>
<g id="Clip path group_2">
<mask id="mask1_2333_207" style="mask-type:luminance" maskUnits="userSpaceOnUse" x="79" y="0" width="76" height="184">
<g id="clip-path-2">
<path id="Vector_4" d="M125.264 7.10804L89.2682 52.7774C77.9363 67.1883 77.1407 87.0871 87.2827 102.294L88.568 104.219L87.2906 106.079C76.741 121.393 77.4187 141.507 88.977 156.151L106.449 177.899C109.215 181.305 113.197 183.453 117.519 183.871C119.659 184.077 121.817 183.853 123.872 183.21C125.927 182.567 127.837 181.518 129.493 180.124C131.15 178.729 132.52 177.016 133.527 175.083C134.533 173.149 135.156 171.032 135.358 168.854C135.561 166.675 135.341 164.477 134.71 162.385C134.078 160.293 133.048 158.349 131.679 156.662L88.5759 104.219L150.35 27.8221C155.259 21.7252 155.353 13.0352 150.066 6.573C148.388 4.51819 146.209 2.94905 143.747 2.02318C141.862 1.31782 139.872 0.952954 137.864 0.945024C135.444 0.940167 133.053 1.49147 130.871 2.55785C128.689 3.62424 126.772 5.17822 125.262 7.104" fill="white"/>
</g>
</mask>
<g mask="url(#mask1_2333_207)">
<g id="Group_2">
<path id="Vector_5" d="M151.317 -16.7199L37.0521 10.3531L80.7825 201.684L195.048 174.611L151.317 -16.7199Z" fill="url(#paint1_linear_2333_207)"/>
</g>
</g>
</g>
</g>
<defs>
<linearGradient id="paint0_linear_2333_207" x1="79.793" y1="92.5358" x2="154.004" y2="92.5358" gradientUnits="userSpaceOnUse">
<stop stop-color="#1FBBEE"/>
<stop offset="0.1" stop-color="#2DBDDE"/>
<stop offset="0.29" stop-color="#50C4B5"/>
<stop offset="0.56" stop-color="#89CE72"/>
<stop offset="0.79" stop-color="#C1D831"/>
<stop offset="1" stop-color="#C1D831"/>
</linearGradient>
<linearGradient id="paint1_linear_2333_207" x1="145.731" y1="215.076" x2="100.748" y2="25.2165" gradientUnits="userSpaceOnUse">
<stop stop-color="#1FBBEE"/>
<stop offset="0.1" stop-color="#2DBDDE"/>
<stop offset="0.29" stop-color="#50C4B5"/>
<stop offset="0.56" stop-color="#89CE72"/>
<stop offset="0.79" stop-color="#C1D831"/>
<stop offset="1" stop-color="#C1D831"/>
</linearGradient>
</defs>
</svg>
